CddbId:6211b316:[183, 18918, 34440, 51115, 64963, 73143, 94035, 106248, 108620, 126363, 134148, 145630, 164650, 183855, 199443, 207363, 218218, 240380, 242598, 264550, 275910, 289573]:339975:74:6211b316 22 183 18918 34440 51115 64963 73143 94035 106248 108620 126363 134148 145630 164650 183855 199443 207363 218218 240380 242598 264550 275910 289573 4533: 22 0 0 0 0 0 0 0 0 0 0 0 0 0 0 0 0 0 0 0 0 0 0 4533
num_tracks: 22
offsets: [183, 18918, 34440, 51115, 64963, 73143, 94035, 106248, 108620, 126363, 134148, 145630, 164650, 183855, 199443, 207363, 218218, 240380, 242598, 264550, 275910, 289573]
extents: [0, 0, 0, 0, 0, 0, 0, 0, 0, 0, 0, 0, 0, 0, 0, 0, 0, 0, 0, 0, 0, 0]
total_length: 4533
cddb: [1645327126, 22, 183, 18918, 34440, 51115, 64963, 73143, 94035, 106248, 108620, 126363, 134148, 145630, 164650, 183855, 199443, 207363, 218218, 240380, 242598, 264550, 275910, 289573, 4533]
musicbrainz: ('22 183 18918 34440 51115 64963 73143 94035 106248 108620 126363 134148 145630 164650 183855 199443 207363 218218 240380 242598 264550 275910 289573 339983', 'VBy6o5XYjSz_H1rNbLZG5IPujDQ-')

CD record:
Device type    : Removable CD-ROM
Version        : 0
Response Format: 2
Capabilities   : 
Vendor_info    : 'FREECOM_'
Identification : 'DVD+/-RW16H4    '
Revision       : 'FR00'
Device seems to be: Generic mmc2 DVD-R/DVD-RW.
Using generic SCSI-3/mmc   CD-R/CD-RW driver (mmc_cdr).
Driver flags   : MMC-3 SWABAUDIO BURNFREE 
Supported modes: TAO PACKET SAO SAO/R96R RAW/R96R
first: 1 last 22
track:   1 lba:        33 (      132) 00:02:33 adr: 1 control: 0 mode: -1
track:   2 lba:     18768 (    75072) 04:12:18 adr: 1 control: 0 mode: -1
track:   3 lba:     34290 (   137160) 07:39:15 adr: 1 control: 0 mode: -1
track:   4 lba:     50965 (   203860) 11:21:40 adr: 1 control: 0 mode: -1
track:   5 lba:     64813 (   259252) 14:26:13 adr: 1 control: 0 mode: -1
track:   6 lba:     72993 (   291972) 16:15:18 adr: 1 control: 0 mode: -1
track:   7 lba:     93885 (   375540) 20:53:60 adr: 1 control: 0 mode: -1
track:   8 lba:    106098 (   424392) 23:36:48 adr: 1 control: 0 mode: -1
track:   9 lba:    108470 (   433880) 24:08:20 adr: 1 control: 0 mode: -1
track:  10 lba:    126213 (   504852) 28:04:63 adr: 1 control: 0 mode: -1
track:  11 lba:    133998 (   535992) 29:48:48 adr: 1 control: 0 mode: -1
track:  12 lba:    145480 (   581920) 32:21:55 adr: 1 control: 0 mode: -1
track:  13 lba:    164500 (   658000) 36:35:25 adr: 1 control: 0 mode: -1
track:  14 lba:    183705 (   734820) 40:51:30 adr: 1 control: 0 mode: -1
track:  15 lba:    199293 (   797172) 44:19:18 adr: 1 control: 0 mode: -1
track:  16 lba:    207213 (   828852) 46:04:63 adr: 1 control: 0 mode: -1
track:  17 lba:    218068 (   872272) 48:29:43 adr: 1 control: 0 mode: -1
track:  18 lba:    240230 (   960920) 53:25:05 adr: 1 control: 0 mode: -1
track:  19 lba:    242448 (   969792) 53:54:48 adr: 1 control: 0 mode: -1
track:  20 lba:    264400 (  1057600) 58:47:25 adr: 1 control: 0 mode: -1
track:  21 lba:    275760 (  1103040) 61:18:60 adr: 1 control: 0 mode: -1
track:  22 lba:    289423 (  1157692) 64:20:73 adr: 1 control: 0 mode: -1
track:lout lba:    339833 (  1359332) 75:33:08 adr: 1 control: 0 mode: -1
